Patient4_TMGait_0pt2_03_right_09_GRF.mot
version=1
nRows=71
nColumns=19
inDegrees=no
endheader
time	F1x	F1y	F1z	M1x	M1y	M1z	F2x	F2y	F2z	M2x	M2y	M2z	EC1x	EC1y	EC1z	EC2x	EC2y	EC2z
19.16	-10.0938	820.3363	66.9686	-280.3203	-65.8909	797.1066	2.0868	52.1877	-6.2481	17.1528	5.7193	47.0306	-0.0592	0.0182	-0.0073	-0.0462	0.0165	0.9585
19.1818	-10.3755	840.8307	68.8914	-286.8523	-67.4098	814.8469	-0.020324	42.3227	-4.7597	13.9793	4.8773	38.1086	-0.0592	0.0182	-0.0073	-0.0462	0.0165	0.9585
19.2036	-10.1861	859.5836	70.8755	-292.8128	-68.7216	830.4291	-1.5772	32.3554	-3.3853	10.7455	3.9827	29.16	-0.0592	0.0182	-0.0073	-0.0462	0.0165	0.9585
19.2254	-9.4094	873.4045	72.5947	-297.1545	-69.4912	840.8391	-2.3822	23.1883	-2.2443	7.7479	3.0862	20.9794	-0.0592	0.0182	-0.0073	-0.0462	0.0165	0.9585
19.2471	-8.0077	879.7535	73.741	-299.0339	-69.4378	843.7263	-2.4985	15.5172	-1.3953	5.2233	2.2637	14.1656	-0.0592	0.0182	-0.0073	-0.0462	0.0165	0.9585
19.2689	-6.0063	877.1701	74.0912	-297.9559	-68.3889	837.8006	-2.2062	9.6941	-0.83158	3.298	1.5993	9.0187	-0.0592	0.0182	-0.0073	-0.0462	0.0165	0.9585
19.2907	-3.4786	865.513	73.5394	-293.8609	-66.3016	823.0607	-1.7427	5.6476	-0.50351	1.9547	1.1206	5.4631	-0.0592	0.0182	-0.0073	-0.0462	0.0165	0.9585
19.3125	-0.54663	846.0139	72.0904	-287.1486	-63.2552	800.8329	-1.2588	3.0463	-0.34492	1.0855	0.80826	3.1784	-0.0592	0.0182	-0.0073	-0.0462	0.0165	0.9585
19.3343	2.6269	821.0932	69.8365	-278.6211	-59.4254	773.5692	-0.83229	1.4504	-0.29273	0.54416	0.62148	1.7507	-0.0592	0.0182	-0.0073	-0.0462	0.0165	0.9585
19.3561	5.8746	793.9685	66.9404	-269.3553	-55.052	744.4311	-0.48601	0.40753	-0.29408	0.18044	0.51013	0.76159	-0.0592	0.0182	-0.0073	-0.0462	0.0165	0.9585
19.3779	9.0709	768.1016	63.6176	-260.5175	-50.4006	716.7228	-0.20782	-0.48347	-0.30497	-0.13882	0.42285	-0.16299	-0.0592	0.0182	-0.0073	-0.0462	0.0165	0.9585
19.3996	12.1512	746.5751	60.1253	-253.1527	-45.7431	693.3012	0.033021	-1.5335	-0.29191	-0.51599	0.31606	-1.313	-0.0592	0.0182	-0.0073	-0.0462	0.0165	0.9585
19.4214	15.088	731.5321	56.7506	-247.9923	-41.3533	676.0837	0.27595	-2.9286	-0.23266	-1.0125	0.15563	-2.8527	-0.0592	0.0182	-0.0073	-0.0462	0.0165	0.9585
19.4432	17.8627	723.798	53.779	-245.3196	-37.4892	665.7472	0.56262	-4.6873	-0.11095	-1.635	-0.086453	-4.7826	-0.0592	0.0182	-0.0073	-0.0462	0.0165	0.9585
19.465	20.4791	722.7925	51.4527	-244.9312	-34.3562	661.6833	0.9299	-6.6062	0.079461	-2.3152	-0.42684	-6.8779	-0.0592	0.0182	-0.0073	-0.0462	0.0165	0.9585
19.4868	22.9632	726.7599	49.9384	-246.2119	-32.0804	662.2359	1.3989	-8.202	0.33068	-2.8881	-0.86054	-8.619	-0.0592	0.0182	-0.0073	-0.0462	0.0165	0.9585
19.5086	25.3368	733.1768	49.3172	-248.2759	-30.7157	665.097	1.962	-8.6433	0.61651	-3.0701	-1.3498	-9.1153	-0.0592	0.0182	-0.0073	-0.0462	0.0165	0.9585
19.5304	27.5937	739.1891	49.5938	-250.1225	-30.2614	667.7086	2.5624	-6.6951	0.88055	-2.4376	-1.8048	-7.0497	-0.0592	0.0182	-0.0073	-0.0462	0.0165	0.9585
19.5521	29.7036	742.0816	50.6868	-250.802	-30.6496	667.684	3.0754	-0.71401	1.0268	-0.42296	-2.0669	-0.67436	-0.0592	0.0182	-0.0073	-0.0462	0.0165	0.9585
19.5739	31.6213	739.7067	52.4013	-249.5711	-31.7151	663.1758	3.2862	11.2739	0.91112	3.6591	-1.8943	12.1062	-0.0592	0.0182	-0.0073	-0.0462	0.0165	0.9585
19.5957	33.265	730.615	54.4237	-245.9421	-33.1975	652.9844	2.8691	31.3377	0.34017	10.5299	-0.95673	33.482	-0.0592	0.0182	-0.0073	-0.0462	0.0165	0.9585
19.6175	34.4799	713.8931	56.3488	-239.6307	-34.775	636.4079	1.3818	61.1905	-0.92569	20.7931	1.1593	65.257	-0.0592	0.0182	-0.0073	-0.0462	0.0165	0.9585
19.6393	35.0277	688.9472	57.7167	-230.4818	-36.1066	613.0408	-1.697	101.4517	-3.1473	34.6818	4.9033	108.0661	-0.0592	0.0182	-0.0073	-0.0462	0.0165	0.9585
19.6611	34.6167	655.5161	58.0753	-218.4671	-36.8808	582.7596	-6.6267	150.8377	-6.5215	51.7687	10.5571	160.5303	-0.0592	0.0182	-0.0073	-0.0462	0.0165	0.9585
19.6829	32.9835	614.0479	57.1063	-203.8033	-36.8994	546.0125	-12.8964	205.4935	-11.0611	70.7274	17.9206	218.5449	-0.0592	0.0182	-0.0073	-0.0462	0.0165	0.9585
19.7046	30.0366	566.2686	54.7268	-187.1308	-36.1174	504.2665	-19.3208	259.7538	-16.2649	89.6126	26.0028	276.0716	-0.0592	0.0182	-0.0073	-0.0462	0.0165	0.9585
19.7264	26.01	515.2292	51.123	-169.5164	-34.6184	460.0292	-24.9338	309.0346	-21.3555	106.8547	33.6182	328.2341	-0.0592	0.0182	-0.0073	-0.0462	0.0165	0.9585
19.7482	21.4785	464.4553	46.6777	-152.1581	-32.5424	416.1448	-29.2525	351.7836	-25.7285	121.9168	39.9594	373.3687	-0.0592	0.0182	-0.0073	-0.0462	0.0165	0.9585
19.77	17.1804	416.8481	41.8553	-136.0146	-30.0411	374.9169	-32.1899	388.5652	-29.1837	134.9684	44.7953	412.0314	-0.0592	0.0182	-0.0073	-0.0462	0.0165	0.9585
19.7918	13.7534	374.1037	37.1088	-121.6178	-27.286	337.673	-33.8748	420.6646	-31.8324	146.4118	48.3005	445.5252	-0.0592	0.0182	-0.0073	-0.0462	0.0165	0.9585
19.8136	11.5527	336.7834	32.7845	-109.1131	-24.4517	304.8442	-34.5492	449.1804	-33.89	156.584	50.7958	474.9633	-0.0592	0.0182	-0.0073	-0.0462	0.0165	0.9585
19.8354	10.609	304.6763	29.0407	-98.3994	-21.6626	276.2746	-34.515	474.702	-35.5235	165.6613	52.5676	500.9324	-0.0592	0.0182	-0.0073	-0.0462	0.0165	0.9585
19.8571	10.7077	277.1224	25.8624	-89.2412	-18.9788	251.47	-34.0438	497.5328	-36.8013	173.7429	53.7911	523.7193	-0.0592	0.0182	-0.0073	-0.0462	0.0165	0.9585
19.8789	11.5234	253.2197	23.1299	-81.3307	-16.409	229.737	-33.3018	518.0767	-37.7147	180.9835	54.5316	543.7053	-0.0592	0.0182	-0.0073	-0.0462	0.0165	0.9585
19.9007	12.7308	231.9421	20.6848	-74.3223	-13.9295	210.2642	-32.3605	536.9944	-38.2342	187.639	54.8022	561.5356	-0.0592	0.0182	-0.0073	-0.0462	0.0165	0.9585
19.9225	14.0595	212.2412	18.3856	-67.865	-11.5118	192.1949	-31.2329	555.1228	-38.3801	194.0228	54.6419	578.0553	-0.0592	0.0182	-0.0073	-0.0462	0.0165	0.9585
19.9443	15.2968	193.1454	16.1407	-61.636	-9.1498	174.7148	-29.9085	573.277	-38.229	200.4289	54.1279	594.1267	-0.0592	0.0182	-0.0073	-0.0462	0.0165	0.9585
19.9661	16.2777	173.8173	13.9068	-55.361	-6.8652	157.1095	-28.3917	592.0227	-37.8806	207.0509	53.3549	610.4133	-0.0592	0.0182	-0.0073	-0.0462	0.0165	0.9585
19.9879	16.8625	153.6377	11.6656	-48.8402	-4.6961	138.8332	-26.7292	611.5031	-37.4537	213.9235	52.4425	627.1955	-0.0592	0.0182	-0.0073	-0.0462	0.0165	0.9585
20.0096	16.9236	132.374	9.4257	-41.9975	-2.7024	119.6534	-25.0037	631.4359	-37.0798	220.9294	51.5307	644.3407	-0.0592	0.0182	-0.0073	-0.0462	0.0165	0.9585
20.0314	16.3546	110.32	7.2432	-34.9259	-0.97648	99.7989	-23.2978	651.2761	-36.8772	227.8657	50.7487	661.4301	-0.0592	0.0182	-0.0073	-0.0462	0.0165	0.9585
20.0532	15.108	88.2705	5.2205	-27.878	0.37208	79.9487	-21.667	670.4422	-36.9064	234.5342	50.1648	677.9569	-0.0592	0.0182	-0.0073	-0.0462	0.0165	0.9585
20.075	13.2314	67.2721	3.4712	-21.1867	1.264	61.0172	-20.1477	688.5315	-37.1428	240.8166	49.7632	693.5381	-0.0592	0.0182	-0.0073	-0.0462	0.0165	0.9585
20.0968	10.8697	48.3148	2.0758	-15.1659	1.6853	43.8891	-18.7824	705.4947	-37.5063	246.7272	49.479	708.0944	-0.0592	0.0182	-0.0073	-0.0462	0.0165	0.9585
20.1186	8.253	32.1492	1.0644	-10.0511	1.6932	29.2512	-17.6247	721.7541	-37.9115	252.4415	49.2462	721.9773	-0.0592	0.0182	-0.0073	-0.0462	0.0165	0.9585
20.1404	5.6583	19.2158	0.41089	-5.9749	1.4045	17.5186	-16.722	738.2026	-38.3009	258.2849	49.0186	735.9836	-0.0592	0.0182	-0.0073	-0.0462	0.0165	0.9585
20.1621	3.3571	9.6191	0.045765	-2.9618	0.96745	8.7972	-16.0797	755.9447	-38.6657	264.6345	48.7805	751.1155	-0.0592	0.0182	-0.0073	-0.0462	0.0165	0.9585
20.1839	1.5281	3.1215	-0.11343	-0.92926	0.51104	2.8765	-15.6552	775.8095	-39.0466	271.7497	48.546	768.1213	-0.0592	0.0182	-0.0073	-0.0462	0.0165	0.9585
20.2057	0.20842	-0.79286	-0.13925	0.28919	0.10892	-0.70277	-15.368	797.8263	-39.5092	279.5946	48.3435	787.0049	-0.0592	0.0182	-0.0073	-0.0462	0.0165	0.9585
20.2275	-0.65441	-2.7645	-0.087685	0.89556	-0.21034	-2.5107	-15.1099	820.8512	-40.1175	287.7177	48.1958	806.6702	-0.0592	0.0182	-0.0073	-0.0462	0.0165	0.9585
20.2493	-1.1531	-3.4095	0.002393	1.0842	-0.44471	-3.1049	-14.7874	842.6014	-40.9001	295.281	48.1013	824.9693	-0.0592	0.0182	-0.0073	-0.0462	0.0165	0.9585
20.2711	-1.3893	-3.243	0.10571	1.0174	-0.60523	-2.9558	-14.3246	860.2142	-41.812	301.2689	47.9971	839.2293	-0.0592	0.0182	-0.0073	-0.0462	0.0165	0.9585
20.2929	-1.4589	-2.6554	0.20836	0.81808	-0.70977	-2.4178	-13.6543	871.1088	-42.7163	304.7903	47.7404	847.0525	-0.0592	0.0182	-0.0073	-0.0462	0.0165	0.9585
20.3146	-1.4389	-1.9184	0.30361	0.57057	-0.7783	-1.7362	-12.7225	873.7639	-43.4138	305.341	47.1408	847.0489	-0.0592	0.0182	-0.0073	-0.0462	0.0165	0.9585
20.3364	-1.3828	-1.2064	0.38755	0.32928	-0.8262	-1.0725	-11.4971	868.1255	-43.7151	302.9349	46.0339	839.2231	-0.0592	0.0182	-0.0073	-0.0462	0.0165	0.9585
20.3582	-1.3211	-0.62268	0.457	0.12827	-0.86236	-0.53031	-9.9767	855.5425	-43.511	298.0717	44.3485	824.9159	-0.0592	0.0182	-0.0073	-0.0462	0.0165	0.9585
20.38	-1.2726	-0.2278	0.5099	-0.011699	-0.89126	-0.17372	-8.2096	838.2667	-42.7942	291.5572	42.1312	806.3205	-0.0592	0.0182	-0.0073	-0.0462	0.0165	0.9585
20.4018	-1.2461	-0.057586	0.54395	-0.076936	-0.91328	-0.042887	-6.2816	818.7874	-41.6429	284.2702	39.5274	785.8399	-0.0592	0.0182	-0.0073	-0.0462	0.0165	0.9585
20.4236	-1.2363	-0.1355	0.55732	-0.058418	-0.92342	-0.16928	-4.2934	799.2467	-40.2053	276.9606	36.753	765.5213	-0.0592	0.0182	-0.0073	-0.0462	0.0165	0.9585
20.4454	-1.2275	-0.4815	0.54744	0.050502	-0.91211	-0.57837	-2.3366	781.1144	-38.675	270.1402	34.0571	746.7358	-0.0592	0.0182	-0.0073	-0.0462	0.0165	0.9585
20.4671	-1.2034	-1.1091	0.51043	0.25391	-0.86919	-1.282	-0.45436	765.2202	-37.2457	264.1006	31.6598	730.1978	-0.0592	0.0182	-0.0073	-0.0462	0.0165	0.9585
20.4889	-1.1446	-2.0118	0.43839	0.55055	-0.78108	-2.269	1.3537	751.9811	-36.0871	258.997	29.7226	716.1885	-0.0592	0.0182	-0.0073	-0.0462	0.0165	0.9585
20.5107	-1.0234	-3.1389	0.31796	0.92717	-0.62403	-3.4801	3.1153	741.642	-35.335	254.9311	28.3502	704.7974	-0.0592	0.0182	-0.0073	-0.0462	0.0165	0.9585
20.5325	-0.80759	-4.3654	0.13554	1.3463	-0.37015	-4.7756	4.8773	734.3536	-35.0686	251.9774	27.5754	696.0166	-0.0592	0.0182	-0.0073	-0.0462	0.0165	0.9585
20.5543	-0.46261	-5.4467	-0.11782	1.7312	0.00053248	-5.8815	6.7017	730.1508	-35.2965	250.1737	27.3538	689.7423	-0.0592	0.0182	-0.0073	-0.0462	0.0165	0.9585
20.5761	0.037179	-5.9718	-0.43869	1.9488	0.4933	-6.341	8.6734	728.9249	-35.9815	249.5026	27.5861	685.7657	-0.0592	0.0182	-0.0073	-0.0462	0.0165	0.9585
20.5979	0.7012	-5.33	-0.80124	1.7972	1.0832	-5.4845	10.8807	730.3384	-37.059	249.8564	28.1435	683.7114	-0.0592	0.0182	-0.0073	-0.0462	0.0165	0.9585
20.6196	1.5037	-2.6951	-1.1438	0.99963	1.6932	-2.416	13.3813	733.7342	-38.449	251.0057	28.8951	682.9733	-0.0592	0.0182	-0.0073	-0.0462	0.0165	0.9585
20.6414	2.3561	2.9453	-1.3582	-0.78669	2.1738	3.9528	16.1625	738.0815	-40.0551	252.5827	29.7219	682.6874	-0.0592	0.0182	-0.0073	-0.0462	0.0165	0.9585
20.6632	3.0725	12.6823	-1.282	-3.9381	2.2854	14.7797	19.1028	741.936	-41.749	254.0689	30.521	681.7125	-0.0592	0.0182	-0.0073	-0.0462	0.0165	0.9585
20.685	3.3727	27.5034	-0.69417	-8.8028	1.6943	31.0911	21.9503	743.4778	-43.3649	254.8118	31.2102	678.6584	-0.0592	0.0182	-0.0073	-0.0462	0.0165	0.9585
